<?xml version="1.0" encoding="UTF-8"?><svg id="Calque_1" xmlns="http://www.w3.org/2000/svg" viewBox="0 0 104.49 72.34"><defs><style>.cls-1{fill:none;}.cls-1,.cls-2,.cls-3,.cls-4,.cls-5,.cls-6,.cls-7,.cls-8{stroke:#1d1d1b;stroke-miterlimit:10;}.cls-1,.cls-6,.cls-7{stroke-width:3px;}.cls-2,.cls-3{stroke-width:2px;}.cls-2,.cls-4{fill:#1d1d1b;}.cls-3{fill:#D1CEFF;}.cls-5,.cls-8{fill:#f6f6f6;}.cls-6{fill:#0000C9;}.cls-7{fill:#08003F;}.cls-8{stroke-width:1.5px;}</style></defs><g><path class="cls-7" d="m14.28,22.65C14.92,9.86,32.74.44,54.07,1.6c21.33,1.16,37.65,10.96,37.44,25.26-.17,11.49-16.5-2.51-37.83-3.67-21.33-1.16-40.05,12.26-39.41-.53Z"/><path class="cls-6" d="m102.96,43.85c-.23,14.16-23.13,25.25-51.15,24.76-28.02-.49-50.54-12.36-50.31-26.52.07-4.4.08-9.72,3.99-13.26,8.7-7.88,27.83-11.83,47.15-11.49,16.81.29,35.41,4.21,44.54,10.74,6.09,4.35,5.87,10.12,5.78,15.79Z"/><path class="cls-3" d="m97.55,48.51c-1.6,7.03-21.82,16.28-46.52,15.85-24.7-.43-42.89-10.33-42.77-17.5.12-7.16,20.23-12.62,44.94-12.19,24.7.43,45.69,7.98,44.35,13.83Z"/><path class="cls-8" d="m95.64,38.23l.22-11-5.76-2.65-.2,10.38c0,.08.02.13.09.15h.03c.81.26,1.59.58,2.33,1.01s1.49.9,2.21,1.38l1.07.73Z"/></g><g><g><circle class="cls-4" cx="71.56" cy="56.07" r="15.77"/><circle class="cls-5" cx="71.56" cy="56.07" r="13.31"/><circle class="cls-4" cx="71.56" cy="56.07" r="9.75"/><circle class="cls-5" cx="71.56" cy="56.07" r="6.77"/><ellipse class="cls-2" cx="71.56" cy="56.07" rx="2.51" ry="2.69"/></g><g><circle class="cls-4" cx="32.93" cy="56.07" r="15.77"/><circle class="cls-5" cx="32.93" cy="56.07" r="13.31"/><circle class="cls-4" cx="32.93" cy="56.07" r="9.75"/><circle class="cls-5" cx="32.93" cy="56.07" r="6.77"/><ellipse class="cls-2" cx="32.93" cy="56.07" rx="2.51" ry="2.69"/></g><path class="cls-1" d="m45.65,47.98l1.47-.41c1.48-.41,3-.71,4.54-.79,1.73-.1,3.52.01,4.97.45l2.14.64"/></g></svg>